<mxfile host="app.diagrams.net" modified="2023-12-15T13:01:05.325Z" agent="Mozilla/5.0 (Windows NT 10.0; Win64; x64) AppleWebKit/537.36 (KHTML, like Gecko) Chrome/120.0.0.0 Safari/537.36 Edg/120.0.0.0" etag="oO-7WvFx1BprSMDQKUz0" version="22.1.9" type="device">
  <diagram name="Arch" id="5dFw3UDy5pwLH7isJnhF">
    <mxGraphModel dx="820" dy="576" grid="1" gridSize="10" guides="1" tooltips="1" connect="1" arrows="1" fold="1" page="1" pageScale="1" pageWidth="1169" pageHeight="827" math="0" shadow="0">
      <root>
        <mxCell id="0" />
        <mxCell id="1" parent="0" />
        <mxCell id="JC_xN1Z3IYO781KQHD-8-3" style="edgeStyle=orthogonalEdgeStyle;rounded=0;orthogonalLoop=1;jettySize=auto;html=1;entryX=0;entryY=0.5;entryDx=0;entryDy=0;" edge="1" parent="1" source="JC_xN1Z3IYO781KQHD-8-1" target="JC_xN1Z3IYO781KQHD-8-2">
          <mxGeometry relative="1" as="geometry" />
        </mxCell>
        <mxCell id="JC_xN1Z3IYO781KQHD-8-1" value="" style="shape=actor;whiteSpace=wrap;html=1;" vertex="1" parent="1">
          <mxGeometry x="40" y="150" width="40" height="60" as="geometry" />
        </mxCell>
        <mxCell id="JC_xN1Z3IYO781KQHD-8-2" value="API Gateway" style="rounded=0;whiteSpace=wrap;html=1;" vertex="1" parent="1">
          <mxGeometry x="170" y="160" width="90" height="40" as="geometry" />
        </mxCell>
        <mxCell id="JC_xN1Z3IYO781KQHD-8-4" value="" style="rounded=0;whiteSpace=wrap;html=1;" vertex="1" parent="1">
          <mxGeometry x="390" y="40" width="90" height="40" as="geometry" />
        </mxCell>
        <mxCell id="JC_xN1Z3IYO781KQHD-8-5" value="Auth" style="rounded=0;whiteSpace=wrap;html=1;" vertex="1" parent="1">
          <mxGeometry x="390" y="160" width="90" height="40" as="geometry" />
        </mxCell>
        <mxCell id="JC_xN1Z3IYO781KQHD-8-6" value="" style="rounded=0;whiteSpace=wrap;html=1;" vertex="1" parent="1">
          <mxGeometry x="390" y="260" width="90" height="40" as="geometry" />
        </mxCell>
      </root>
    </mxGraphModel>
  </diagram>
</mxfile>
